<?xml version="1.0" encoding="utf-8"?>
<!-- Generator: Adobe Illustrator 17.1.0, SVG Export Plug-In . SVG Version: 6.00 Build 0)  -->
<!DOCTYPE svg PUBLIC "-//W3C//DTD SVG 1.1//EN" "http://www.w3.org/Graphics/SVG/1.1/DTD/svg11.dtd">
<svg version="1.1" id="Layer_1" xmlns="http://www.w3.org/2000/svg" xmlns:xlink="http://www.w3.org/1999/xlink" x="0px" y="0px"
	 viewBox="0 0 45 45" enable-background="new 0 0 45 45" xml:space="preserve">
<g id="ball">
	<g>
		<path fill="#D1D2D4" d="M22.5,1.5c-11.2,0-20.3,9.1-20.3,20.3s9.1,20.3,20.3,20.3S42.8,33,42.8,21.8S33.7,1.5,22.5,1.5z
			 M35.9,10.9c2.4,3,3.9,6.7,3.9,10.8c-0.6-0.1-6.3-1.3-12.1-0.6c-0.1-0.3-0.2-0.6-0.4-0.9c-0.4-0.8-0.7-1.7-1.2-2.5
			C32.7,15.1,35.6,11.4,35.9,10.9z M22.5,4.5c4.4,0,8.4,1.7,11.5,4.4c-0.3,0.4-2.9,4-9.1,6.3c-2.8-5.2-6-9.5-6.5-10.2
			C19.7,4.7,21.1,4.5,22.5,4.5z M15.1,6.1c0.5,0.6,3.6,4.9,6.4,10c-8.1,2.2-15.3,2.1-16,2.1C6.6,12.9,10.3,8.4,15.1,6.1z M5.2,21.8
			c0-0.2,0-0.4,0-0.5c0.8,0,9.2,0.1,17.8-2.5c0.5,1,1,2,1.4,2.9c-0.2,0.1-0.5,0.1-0.7,0.2c-8.9,3-13.7,10.9-14.1,11.5
			C6.8,30.4,5.2,26.3,5.2,21.8z M22.5,39.2c-4,0-7.7-1.4-10.6-3.7c0.3-0.6,3.8-7.4,13.6-10.8h0.1C28,31,29,36.3,29.3,37.8
			C27.2,38.7,24.9,39.2,22.5,39.2z M32.2,36.2c-0.2-1.1-1.1-6.1-3.4-12.4c5.4-0.9,10.2,0.6,10.8,0.7C38.9,29.4,36.1,33.6,32.2,36.2z
			"/>
	</g>
</g>
</svg>
