<?xml version="1.0" encoding="utf-8"?>
<!-- Generator: Adobe Illustrator 17.1.0, SVG Export Plug-In . SVG Version: 6.00 Build 0)  -->
<!DOCTYPE svg PUBLIC "-//W3C//DTD SVG 1.1//EN" "http://www.w3.org/Graphics/SVG/1.1/DTD/svg11.dtd">
<svg version="1.1" id="Layer_1" xmlns="http://www.w3.org/2000/svg" xmlns:xlink="http://www.w3.org/1999/xlink" x="0px" y="0px"
	 viewBox="0 0 45 45" enable-background="new 0 0 45 45" xml:space="preserve">
<path fill="#5BBABA" d="M40.6,11c-0.2-0.3,0-0.5,0.2-0.7c0.3-0.4,0.6-0.8,0.9-1.2c0.5-0.7,1.1-1.4,1.4-2.5c-0.9,0.4-1.7,0.6-2.4,1
	c-1.8,0.9-3.3,0.8-5-0.4C30.8,3.8,23.4,6.6,22,13.1c-0.2,1-0.1,2-0.1,3c0,0.7-0.2,1-1,0.9c-3-0.4-5.9-1.1-8.7-2.5
	C9,13,6.2,10.8,3.7,8.2C3,7.4,2.9,7.5,2.6,8.4c-1.2,3.6-0.7,6.9,1.9,9.8c0.2,0.2,0.3,0.4,0.4,0.5C5,18.9,5.2,19.2,5,19.4
	c-0.2,0.3-0.5,0.2-0.7,0.1c-0.5-0.1-1-0.3-1.5-0.5c-0.9-0.3-1.1-0.1-0.9,0.8c0.6,3.4,2.6,5.8,5.7,7.3c0.3,0.2,0.8,0.2,0.9,0.7
	c-0.7,0.2-1.4,0.1-2.1,0.1c-1,0-1.2,0.3-0.7,1.2C6,29.9,6.4,30.5,6.9,31c1.5,1.6,3.4,2.5,5.5,3.2c0.3,0.1,0.7,0.1,0.7,0.4
	c0.1,0.4-0.4,0.4-0.6,0.6c-3.1,2-6.5,2.9-10.2,3c-0.5,0-1-0.1-1.4,0.2C1,38.8,1.3,38.9,1.6,39c4.9,2.5,10.1,3.6,15.6,2.9
	c4.4-0.5,8.5-1.9,12.1-4.6c5.9-4.6,9.6-10.5,10.4-17.9c0.4-3.3,1.2-6,3.9-8.1c0.3-0.2,0.6-0.5,0.6-1c-1,0.3-1.9,0.6-2.8,0.9
	C41.1,11.2,40.8,11.3,40.6,11z"/>
</svg>
