<?xml version="1.0" encoding="utf-8"?>
<!-- Generator: Adobe Illustrator 17.1.0, SVG Export Plug-In . SVG Version: 6.00 Build 0)  -->
<!DOCTYPE svg PUBLIC "-//W3C//DTD SVG 1.1//EN" "http://www.w3.org/Graphics/SVG/1.1/DTD/svg11.dtd">
<svg version="1.1" id="Layer_1" xmlns="http://www.w3.org/2000/svg" xmlns:xlink="http://www.w3.org/1999/xlink" x="0px" y="0px"
	 viewBox="0 0 45 45" enable-background="new 0 0 45 45" xml:space="preserve">
<g>
	<path fill="#DD4951" d="M43.2,15.7c-0.7-0.3-1.2,0.4-1.8,0.7C36,20.2,30.7,24,25.3,27.7c-2.5,1.7-3,1.8-5.4,0
		C14.4,24,9,20.2,3.6,16.4c-0.5-0.4-1-1-1.8-0.6c-0.6,0.4-0.4,1.1-0.4,1.7c0,5.5,0,11,0,16.4c0,2.4,0.3,2.7,2.7,2.7
		c6.1,0,12.2,0,18.3,0c6.2,0,12.4,0,18.7,0c2.4,0,2.7-0.3,2.7-2.7c0-5.4,0-10.8,0-16.2C43.7,17,44,16.1,43.2,15.7z"/>
	<path fill="#DD4951" d="M41.2,9.7c-6.2,0-12.4,0-18.7,0c-6.2,0-12.4,0-18.7,0c-0.6,0-1.5-0.3-1.8,0.5s0.6,1.1,1.1,1.5
		c5.8,4,11.6,8,17.3,12c1.4,1,2.6,1,4,0c5.7-4,11.5-8,17.3-12c0.5-0.4,1.4-0.6,1.1-1.5C42.7,9.5,41.8,9.7,41.2,9.7z"/>
</g>
</svg>
