<?xml version="1.0" encoding="utf-8"?>
<!-- Generator: Adobe Illustrator 17.1.0, SVG Export Plug-In . SVG Version: 6.00 Build 0)  -->
<!DOCTYPE svg PUBLIC "-//W3C//DTD SVG 1.1//EN" "http://www.w3.org/Graphics/SVG/1.1/DTD/svg11.dtd">
<svg version="1.1" id="Layer_1" xmlns="http://www.w3.org/2000/svg" xmlns:xlink="http://www.w3.org/1999/xlink" x="0px" y="0px"
	 viewBox="0 0 45 45" enable-background="new 0 0 45 45" xml:space="preserve">
<g>
	<path fill="#D1D2D4" d="M22.7,2.5c3.3,0,6.6,0,9.8,0c5.4,0.1,9.7,4.4,9.7,9.8c0,6.2,0,12.4,0,18.5c0,7.1-3.4,11.1-10.5,11.4
		c-6.7,0.3-13.4,0.4-20.1-0.1c-4.8-0.4-8.8-4.5-8.9-9.3c-0.1-6.9-0.1-13.9,0-20.8c0.1-5.2,4.4-9.4,9.6-9.4
		C15.8,2.5,19.3,2.5,22.7,2.5z M22.6,38.1c3.1,0,6.1,0,9.2,0c0.1,0,0.2,0,0.3,0c3.8-0.1,6.1-2.4,6.1-6.2c0-2.6,0-5.2,0-7.7
		c0-4.4,0-4.4-4.4-4.4c-2.2,0-2.2,0-1.8,2.1c1.2,6.2-4.4,11.9-10.6,11c-5.7-0.9-9.1-5.7-8-11.5c0.2-1.3,0-1.7-1.3-1.6
		c-1.2,0.1-2.4,0.1-3.5,0c-1.4-0.1-1.9,0.4-1.9,1.8c0.1,3.4,0,6.8,0,10.2c0,4,2.3,6.3,6.3,6.4C16.3,38.2,19.4,38.1,22.6,38.1z
		 M22.5,6.6c-2.9,0-5.8,0.2-8.7,0c-4.2-0.3-7.4,2.6-7,7.7c0.1,1,0.5,1.3,1.4,1.3c2.2,0,4.4,0,6.6,0c1.5,0,2.8-0.2,4.2-0.8
		c2.6-1.2,5.2-1.1,7.8,0.1c0.6,0.3,1.2,0.7,2,0.7c2.7,0,5.5,0,8.2,0c0.6,0,1.1-0.1,1.3-0.9c0.9-4.5-1.9-8-6.4-8
		C28.7,6.5,25.6,6.6,22.5,6.6z M22.7,19.8c-1.9,0-3.6,1.7-3.6,3.6s1.7,3.6,3.6,3.6c2.1,0,3.7-1.7,3.6-3.7
		C26.3,21.3,24.7,19.8,22.7,19.8z"/>
	<path fill="#D1D2D4" d="M35.8,11.4c0,2.8-0.2,2.9-3.1,2.9c-2.7,0-2.9-0.2-2.9-3.1c0-2.7,0.2-2.8,3.2-2.8
		C35.7,8.4,35.8,8.5,35.8,11.4z"/>
</g>
</svg>
