<?xml version="1.0" encoding="utf-8"?>
<!-- Generator: Adobe Illustrator 17.1.0, SVG Export Plug-In . SVG Version: 6.00 Build 0)  -->
<!DOCTYPE svg PUBLIC "-//W3C//DTD SVG 1.1//EN" "http://www.w3.org/Graphics/SVG/1.1/DTD/svg11.dtd">
<svg version="1.1" id="Layer_1" xmlns="http://www.w3.org/2000/svg" xmlns:xlink="http://www.w3.org/1999/xlink" x="0px" y="0px"
	 viewBox="0 0 45 45" enable-background="new 0 0 45 45" xml:space="preserve">
<g>
	<path fill="#939598" d="M39.5,16.6c-4.1-1.7-9.4-0.5-11.8,2.6c-2.9,3.8-3,9.5-0.2,13c3.1,4,11.5,4.6,15,1c0.9-0.9,1.3-2,1.6-3.2
		c0.1-0.4,0.1-0.8-0.4-1c-1.1-0.5-3.4,0.1-4.1,1.1c-1.3,1.8-3.1,1.8-5,1.6c-1.7-0.2-3-1.2-3.6-2.9c-0.5-1.3-0.2-2.1,1.4-2.1
		c1.7,0,3.5,0,5.2,0c0,0,0,0,0,0c1.7,0,3.5,0,5.2,0c0.7,0,1.4-0.1,1.6-1C45,22.5,42.6,17.9,39.5,16.6z M38.2,23.8c-1,0-2,0-3,0
		c0,0,0,0,0,0c-1.1,0-2.1,0-3.2,0c-0.8,0-1.2-0.3-1-1.2c0.4-1.7,2.3-3.1,4.3-3.2c1.9-0.1,3.5,1,4.1,2.6
		C39.8,23.1,39.7,23.8,38.2,23.8z"/>
	<path fill="#939598" d="M19.7,21c3.2-1.9,4.1-4.1,3.1-7.4c-0.8-2.5-2.9-4.1-5.8-4.2c-4.3-0.1-8.7,0-13-0.1c-1.1,0-1.6,0.4-1.6,1.6
		c0,7.6,0,15.1,0,22.7c0,0.9,0.3,1.5,1.3,1.5c4.6,0,9.2,0.1,13.8-0.1c3.4-0.1,6-2.5,6.5-5.7C24.6,25.1,23.4,22.7,19.7,21z
		 M12.4,13.5c0.9,0,1.8,0,2.7,0c1.9,0.1,2.8,1,2.8,2.9c0,2.1-0.8,3.2-2.6,3.3c-1.9,0.1-3.8,0-5.7,0c-1.1,0-1.5-0.5-1.5-1.5
		c0-0.1,0-0.1,0-0.2C7.9,13.5,7.9,13.5,12.4,13.5z M15.3,30.8c-1,0.1-1.9,0-2.9,0c-5,0-4.3,0.5-4.3-4.2c0-0.3,0-0.6,0-0.9
		c0-2.4,0-2.4,2.4-2.4c1.7,0,3.3-0.1,5,0.1c2.3,0.2,3.3,1.5,3.3,4C18.7,29.7,17.7,30.7,15.3,30.8z"/>
	<path fill="#939598" d="M31,13.6c2.7,0,5.3,0,8,0c0.9,0,1.3-0.3,1.3-1.3c0-0.9-0.3-1.5-1.3-1.5c-1.3,0-2.6,0-3.9,0
		c-1.4,0-2.7,0-4.1,0c-0.9,0-1.2,0.5-1.2,1.4C29.9,12.9,30,13.6,31,13.6z"/>
</g>
</svg>
